# xmcd
# Track frame offsets:
# 150
# 11967
# 25487
# 39407
# 53722
# 68075
# 82267
# 95135
# 108885
# 120935
# 132907
# 145660
# 159252
# 170277
# 183497
# 194835
# 206062
# 218107
# 229802
# 242345
# 254760
#
# Disc length: 3542 seconds
# Revision: 0
# Processed by: cddbd v1.4PL0 Copyright (c) Steve Scherf et al.
# Submitted via: VisiTrax 2.9.5.180 - For more info visit www.synapsa.com
#
DISCID=2e0dd415
DTITLE=Roy Rogers - Along the Navajo Trail
DYEAR=2001
DGENRE=
TTITLE0=Yellow rose of Texas
TTITLE1=Along the Navajo trail
TTITLE2=Home in Oklahoma
TTITLE3=You can't break my heart
TTITLE4=You should know
TTITLE5=Rock me to sleep in my saddle
TTITLE6=I can't go on this way
TTITLE7=A little white cross on the hill
TTITLE8=I never had a chance
TTITLE9=I'm restless
TTITLE10=No children allowed
TTITLE11=My heart went that-a-way
TTITLE12=My Chickashay girl
TTITLE13=Dangerous ground
TTITLE14=I've got a feelin'
TTITLE15=Make-believe cowboy
TTITLE16=San Fernando Valle
TTITLE17=Roll on Texas moon
TTITLE18=on the old spanish trail
TTITLE19=Betsy
TTITLE20=Hawaiian Cowboy
EXTD=
EXTT0=
EXTT1=
EXTT2=
EXTT3=
EXTT4=
EXTT5=
EXTT6=
EXTT7=
EXTT8=
EXTT9=
EXTT10=
EXTT11=
EXTT12=
EXTT13=
EXTT14=
EXTT15=
EXTT16=
EXTT17=
EXTT18=
EXTT19=
EXTT20=
PLAYORDER=
